<svg id="Layer_1" data-name="Layer 1" xmlns="http://www.w3.org/2000/svg" viewBox="0 0 139.12 54.54"><defs><style>.cls-1{fill:#202728;}.cls-2{fill:#3182ce;}</style></defs><title>coderace-logo</title><path class="cls-1" d="M5.47,40.5a6.63,6.63,0,0,1-2.78-2.44,6.68,6.68,0,0,1-1-3.6A9.22,9.22,0,0,1,3,29.67,8.66,8.66,0,0,1,6.42,26.4a10.53,10.53,0,0,1,5-1.18,9.29,9.29,0,0,1,3.95.8A5.53,5.53,0,0,1,18,28.31l-3.75,2.93a3.34,3.34,0,0,0-3.09-1.81A3.94,3.94,0,0,0,9,30a4.05,4.05,0,0,0-1.48,1.66A5.5,5.5,0,0,0,7,34.13a2.9,2.9,0,0,0,.87,2.2,3.22,3.22,0,0,0,2.31.82,4.36,4.36,0,0,0,3.44-1.78l3.07,2.93a7.73,7.73,0,0,1-3.06,2.36,10.33,10.33,0,0,1-4,.71A9.46,9.46,0,0,1,5.47,40.5Z"/><path class="cls-1" d="M20.4,40.54a5.21,5.21,0,0,1-2.28-1.95,5.32,5.32,0,0,1-.81-2.94,6.58,6.58,0,0,1,1-3.54A6.83,6.83,0,0,1,21,29.63a8.18,8.18,0,0,1,3.87-.9,8.14,8.14,0,0,1,3.47.69,5.16,5.16,0,0,1,3.09,4.89,6.67,6.67,0,0,1-1,3.54,6.83,6.83,0,0,1-2.68,2.48,8.08,8.08,0,0,1-3.88.91A8.12,8.12,0,0,1,20.4,40.54Zm5.33-4a3.13,3.13,0,0,0,.61-2,2,2,0,0,0-.48-1.38,1.71,1.71,0,0,0-1.31-.52A1.93,1.93,0,0,0,23,33.4a3.07,3.07,0,0,0-.61,2,1.93,1.93,0,0,0,.48,1.38,1.66,1.66,0,0,0,1.31.52A1.94,1.94,0,0,0,25.73,36.56Z"/><path class="cls-1" d="M48.31,24.64,45.05,41h-4.7l.22-1.11a4.51,4.51,0,0,1-3.25,1.33,4.64,4.64,0,0,1-2.38-.67,4.94,4.94,0,0,1-1.86-1.93,5.94,5.94,0,0,1-.72-3,7.24,7.24,0,0,1,.87-3.53,6.48,6.48,0,0,1,2.35-2.49,6,6,0,0,1,3.2-.9,3.92,3.92,0,0,1,3.44,1.47l1.11-5.56ZM37.89,36.79a1.66,1.66,0,0,0,1.31.52,1.94,1.94,0,0,0,1.58-.75,3.13,3.13,0,0,0,.6-2,2,2,0,0,0-.47-1.38,1.72,1.72,0,0,0-1.31-.52A1.93,1.93,0,0,0,38,33.4a3.07,3.07,0,0,0-.61,2A1.93,1.93,0,0,0,37.89,36.79Z"/><path class="cls-1" d="M61.15,36.14H52.7a1.56,1.56,0,0,0,.73,1.08,3.19,3.19,0,0,0,1.59.33,4.28,4.28,0,0,0,2.63-.84l2.07,3a9.15,9.15,0,0,1-5.27,1.5A8.31,8.31,0,0,1,51,40.55a5.1,5.1,0,0,1-3.16-4.9,6.88,6.88,0,0,1,.93-3.56,6.63,6.63,0,0,1,2.64-2.47,8.2,8.2,0,0,1,3.91-.89,7.41,7.41,0,0,1,3.28.67,4.86,4.86,0,0,1,2.12,1.87A5.23,5.23,0,0,1,61.42,34,8.83,8.83,0,0,1,61.15,36.14Zm-7.44-3.59a2.6,2.6,0,0,0-.81,1.18h4a1.51,1.51,0,0,0-.48-1.18,2,2,0,0,0-1.31-.43A2.14,2.14,0,0,0,53.71,32.55Z"/><path class="cls-1" d="M77.05,34.23A6.45,6.45,0,0,1,74,36.51L76.56,41H71.15L69,37.13H67.69L66.91,41h-5.2l3.08-15.45h6.93a7.49,7.49,0,0,1,4.74,1.34,4.5,4.5,0,0,1,1.68,3.74A6,6,0,0,1,77.05,34.23Zm-6.12-4.64H69.19l-.73,3.61H70.6a2.38,2.38,0,0,0,1.67-.54,1.92,1.92,0,0,0,.6-1.51C72.87,30.11,72.22,29.59,70.93,29.59Z"/><path class="cls-1" d="M93.66,29,91.25,41h-4.7l.22-1.11a4.5,4.5,0,0,1-3.26,1.33,4.65,4.65,0,0,1-2.39-.67,5,5,0,0,1-1.86-1.93,5.94,5.94,0,0,1-.72-3,7.24,7.24,0,0,1,.87-3.53,6.55,6.55,0,0,1,2.35-2.49,6,6,0,0,1,3.2-.9,3.84,3.84,0,0,1,3.44,1.5L88.67,29Zm-9.59,7.84a1.67,1.67,0,0,0,1.31.52A1.94,1.94,0,0,0,87,36.56a3.13,3.13,0,0,0,.61-2,2,2,0,0,0-.48-1.38,1.71,1.71,0,0,0-1.31-.52,1.94,1.94,0,0,0-1.58.75,3.13,3.13,0,0,0-.61,2A1.93,1.93,0,0,0,84.07,36.79Z"/><path class="cls-1" d="M97.09,40.54A5.16,5.16,0,0,1,94,35.65a6.59,6.59,0,0,1,1-3.54,6.71,6.71,0,0,1,2.71-2.48,8.43,8.43,0,0,1,3.93-.9,7.24,7.24,0,0,1,3.74.94,5.21,5.21,0,0,1,2.24,2.59l-4.24,1.94a2,2,0,0,0-2-1.55,2.1,2.1,0,0,0-1.66.75A2.83,2.83,0,0,0,99,35.34a2,2,0,0,0,.49,1.43,1.83,1.83,0,0,0,1.41.54,2.2,2.2,0,0,0,1.29-.37,3,3,0,0,0,1-1.18l3.64,2.12a6.31,6.31,0,0,1-2.53,2.49,7.79,7.79,0,0,1-3.74.87A8.11,8.11,0,0,1,97.09,40.54Z"/><path class="cls-1" d="M120.77,36.14h-8.45a1.56,1.56,0,0,0,.73,1.08,3.19,3.19,0,0,0,1.59.33,4.28,4.28,0,0,0,2.63-.84l2.07,3a9.15,9.15,0,0,1-5.27,1.5,8.31,8.31,0,0,1-3.48-.69,5.1,5.1,0,0,1-3.16-4.9,6.88,6.88,0,0,1,.93-3.56A6.63,6.63,0,0,1,111,29.62a8.2,8.2,0,0,1,3.91-.89,7.41,7.41,0,0,1,3.28.67,4.86,4.86,0,0,1,2.12,1.87A5.23,5.23,0,0,1,121,34,8.83,8.83,0,0,1,120.77,36.14Zm-7.44-3.59a2.6,2.6,0,0,0-.81,1.18h4a1.51,1.51,0,0,0-.48-1.18,1.94,1.94,0,0,0-1.3-.43A2.15,2.15,0,0,0,113.33,32.55Z"/><path class="cls-2" d="M35.14,51.36a1.41,1.41,0,0,1,.28.86,1.3,1.3,0,0,1-.6,1.14,3.08,3.08,0,0,1-1.71.4h-3v-5.6H33a2.82,2.82,0,0,1,1.63.39,1.24,1.24,0,0,1,.56,1.07,1.34,1.34,0,0,1-.19.72,1.36,1.36,0,0,1-.56.5A1.52,1.52,0,0,1,35.14,51.36ZM31.66,49.3v1.08h1.08c.54,0,.8-.18.8-.54s-.26-.54-.8-.54Zm2.16,2.75q0-.57-.84-.57H31.66v1.13H33C33.54,52.61,33.82,52.43,33.82,52.05Z"/><path class="cls-2" d="M39.07,53.49A2.83,2.83,0,0,1,37.55,51a2.83,2.83,0,0,1,1.52-2.54,3.62,3.62,0,0,1,3.19,0A2.83,2.83,0,0,1,43.78,51a2.83,2.83,0,0,1-1.52,2.53,3.54,3.54,0,0,1-3.19,0Zm2.36-1.13a1.51,1.51,0,0,0,.55-.57,1.73,1.73,0,0,0,.2-.83,1.77,1.77,0,0,0-.2-.84,1.48,1.48,0,0,0-.55-.56,1.56,1.56,0,0,0-1.53,0,1.41,1.41,0,0,0-.55.56,1.77,1.77,0,0,0-.2.84,1.73,1.73,0,0,0,.2.83,1.44,1.44,0,0,0,.55.57,1.56,1.56,0,0,0,1.53,0Z"/><path class="cls-2" d="M47.44,53.49a2.74,2.74,0,0,1-1.12-1,2.8,2.8,0,0,1-.4-1.49,2.78,2.78,0,0,1,1.52-2.54A3.33,3.33,0,0,1,49,48.05a3.37,3.37,0,0,1,1.6.37A2.79,2.79,0,0,1,52.14,51a2.79,2.79,0,0,1-1.51,2.53,3.38,3.38,0,0,1-1.6.38A3.34,3.34,0,0,1,47.44,53.49Zm2.36-1.13a1.41,1.41,0,0,0,.54-.57,1.62,1.62,0,0,0,.2-.83,1.66,1.66,0,0,0-.2-.84,1.39,1.39,0,0,0-.54-.56,1.58,1.58,0,0,0-1.54,0,1.39,1.39,0,0,0-.54.56,1.77,1.77,0,0,0-.2.84,1.73,1.73,0,0,0,.2.83,1.41,1.41,0,0,0,.54.57,1.58,1.58,0,0,0,1.54,0Z"/><path class="cls-2" d="M55.69,49.41H54V48.16h5v1.25H57.27v4.35H55.69Z"/><path class="cls-2" d="M62.31,53.5a2.69,2.69,0,0,1-1.1-1,2.81,2.81,0,0,1-.4-1.5,2.87,2.87,0,0,1,.4-1.51,2.73,2.73,0,0,1,1.1-1,3.26,3.26,0,0,1,1.58-.37,3.4,3.4,0,0,1,1.38.27,2.74,2.74,0,0,1,1,.78l-1,.91A1.68,1.68,0,0,0,64,49.36a1.62,1.62,0,0,0-.81.2,1.37,1.37,0,0,0-.56.56,1.76,1.76,0,0,0-.19.84,1.72,1.72,0,0,0,.19.83,1.4,1.4,0,0,0,.56.57,1.62,1.62,0,0,0,.81.2,1.66,1.66,0,0,0,1.32-.66l1,.91a2.66,2.66,0,0,1-1,.79,3.4,3.4,0,0,1-1.38.27A3.26,3.26,0,0,1,62.31,53.5Z"/><path class="cls-2" d="M72.26,52.67H69.89l-.44,1.09H67.83l2.47-5.6h1.56l2.48,5.6H72.7Zm-.47-1.17-.72-1.79-.72,1.79Z"/><path class="cls-2" d="M81.45,53.76l0-3L80,53.21h-.7l-1.43-2.34v2.89H76.39v-5.6H77.7l2,3.23,1.92-3.23h1.31v5.6Z"/><path class="cls-2" d="M89.5,48.41a2,2,0,0,1,.87.72,2.17,2.17,0,0,1,0,2.2,1.93,1.93,0,0,1-.87.71,3.14,3.14,0,0,1-1.32.25h-1v1.47H85.62v-5.6h2.56A3.14,3.14,0,0,1,89.5,48.41Zm-.68,2.42a.73.73,0,0,0,.25-.6.76.76,0,0,0-.25-.61,1.1,1.1,0,0,0-.73-.21h-.88v1.64h.88A1,1,0,0,0,88.82,50.83Z"/><polygon class="cls-1" points="119.31 30.47 126.36 25.28 125.34 24.51 118.3 29.7 119.31 30.47"/><polygon class="cls-1" points="131.37 10.75 121.3 0.68 117.77 5.38 127.26 14.87 131.37 10.75"/><polygon points="125.43 4.79 117.19 4.8 122.5 10.11 125.43 4.79"/><rect class="cls-2" x="111.21" y="4.85" width="14.24" height="5.82" transform="translate(29.17 85.95) rotate(-45)"/><polygon class="cls-1" points="117.28 16.56 127.35 26.63 130.88 21.93 121.39 12.44 117.28 16.56"/><polygon points="123.23 22.53 131.46 22.52 126.15 17.2 123.23 22.53"/><rect class="cls-2" x="123.2" y="16.64" width="14.24" height="5.82" transform="translate(236.29 -58.78) rotate(135)"/></svg>